# xmcd
#
# Track frame offsets:
#	150
#	11475
#	25390
#	39275
#	53550
#	72070
#	87435
#	104020
#	117360
#	132820
#	155450
#	170215
#	183950
#	199775
#	234660
#
# Disc length: 3306 seconds
#
# Revision: 1
# Processed by: cddbd v1.5.1PL2 Copyright (c) Steve Scherf et al.
# Submitted via: EasyCDDAExtractor 8.0.2.1
#
DISCID=c60ce80f
DTITLE=Motörhead - Pontushallen Luleå 27-11-00
DYEAR=2000
DGENRE=Hard Rock
TTITLE0=We Are Motörhead
TTITLE1=Bomber
TTITLE2=No Class
TTITLE3=I'm So Bad Baby I Don't Care
TTITLE4=Over Your Shoulder
TTITLE5=Civil War
TTITLE6=Metropolis
TTITLE7=Shoot You In The Back
TTITLE8=God Save The Queen
TTITLE9=Born To Raise Hell
TTITLE10=Damage Case
TTITLE11=Going To Brazil
TTITLE12=Iron Fist
TTITLE13=Killed By Death
TTITLE14=Ace Of Spades
EXTD=
EXTT0=
EXTT1=
EXTT2=
EXTT3=
EXTT4=
EXTT5=
EXTT6=
EXTT7=
EXTT8=
EXTT9=
EXTT10=
EXTT11=
EXTT12=
EXTT13=
EXTT14=
PLAYORDER=
